<?xml version="1.0" encoding="UTF-8" standalone="no"?>
<!-- Created with Inkscape (http://www.inkscape.org/) -->

<svg
   version="1.1"
   id="svg1"
   width="580.00201"
   height="113"
   viewBox="0 0 580.00201 113.00001"
   sodipodi:docname="211003_Wolflogo.pdf"
   xmlns:inkscape="http://www.inkscape.org/namespaces/inkscape"
   xmlns:sodipodi="http://sodipodi.sourceforge.net/DTD/sodipodi-0.dtd"
   xmlns="http://www.w3.org/2000/svg"
   xmlns:svg="http://www.w3.org/2000/svg">
  <defs
     id="defs1">
    <clipPath
       clipPathUnits="userSpaceOnUse"
       id="clipPath3">
      <path
         d="M 0,1500 H 1500 V 0 H 0 Z"
         transform="translate(-1235.1571,-779.48242)"
         id="path3" />
    </clipPath>
    <clipPath
       clipPathUnits="userSpaceOnUse"
       id="clipPath5">
      <path
         d="M 0,1500 H 1500 V 0 H 0 Z"
         transform="translate(-1154.3992,-724.49372)"
         id="path5" />
    </clipPath>
    <clipPath
       clipPathUnits="userSpaceOnUse"
       id="clipPath7">
      <path
         d="M 0,1500 H 1500 V 0 H 0 Z"
         transform="translate(-499.87201,-305.24123)"
         id="path7" />
    </clipPath>
    <clipPath
       clipPathUnits="userSpaceOnUse"
       id="clipPath9">
      <path
         d="M 0,1500 H 1500 V 0 H 0 Z"
         transform="translate(-688.68062,-333.09773)"
         id="path9" />
    </clipPath>
    <clipPath
       clipPathUnits="userSpaceOnUse"
       id="clipPath11">
      <path
         d="M 0,1500 H 1500 V 0 H 0 Z"
         transform="translate(-807.26755,-389.39258)"
         id="path11" />
    </clipPath>
    <clipPath
       clipPathUnits="userSpaceOnUse"
       id="clipPath13">
      <path
         d="M 0,1500 H 1500 V 0 H 0 Z"
         transform="translate(-887.35645,-355.34468)"
         id="path13" />
    </clipPath>
    <clipPath
       clipPathUnits="userSpaceOnUse"
       id="clipPath15">
      <path
         d="M 0,1500 H 1500 V 0 H 0 Z"
         transform="translate(-982.33885,-389.39258)"
         id="path15" />
    </clipPath>
    <clipPath
       clipPathUnits="userSpaceOnUse"
       id="clipPath17">
      <path
         d="M 0,1500 H 1500 V 0 H 0 Z"
         transform="translate(-1172.3065,-330.77641)"
         id="path17" />
    </clipPath>
    <clipPath
       clipPathUnits="userSpaceOnUse"
       id="clipPath19">
      <path
         d="M 0,1500 H 1500 V 0 H 0 Z"
         transform="translate(-270.17551,-483.28224)"
         id="path19" />
    </clipPath>
    <clipPath
       clipPathUnits="userSpaceOnUse"
       id="clipPath21">
      <path
         d="M 0,1500 H 1500 V 0 H 0 Z"
         transform="translate(-389.77961,-483.06234)"
         id="path21" />
    </clipPath>
    <clipPath
       clipPathUnits="userSpaceOnUse"
       id="clipPath23">
      <path
         d="M 0,1500 H 1500 V 0 H 0 Z"
         transform="translate(-571.48711,-576.10741)"
         id="path23" />
    </clipPath>
    <clipPath
       clipPathUnits="userSpaceOnUse"
       id="clipPath25">
      <path
         d="M 0,1500 H 1500 V 0 H 0 Z"
         transform="translate(-664.53911,-573.69339)"
         id="path25" />
    </clipPath>
    <clipPath
       clipPathUnits="userSpaceOnUse"
       id="clipPath27">
      <path
         d="M 0,1500 H 1500 V 0 H 0 Z"
         transform="translate(-795.33234,-573.69339)"
         id="path27" />
    </clipPath>
    <clipPath
       clipPathUnits="userSpaceOnUse"
       id="clipPath29">
      <path
         d="M 0,1500 H 1500 V 0 H 0 Z"
         transform="translate(-944.55985,-483.06234)"
         id="path29" />
    </clipPath>
    <clipPath
       clipPathUnits="userSpaceOnUse"
       id="clipPath31">
      <path
         d="M 0,1500 H 1500 V 0 H 0 Z"
         transform="translate(-1098.8367,-509.83441)"
         id="path31" />
    </clipPath>
    <clipPath
       clipPathUnits="userSpaceOnUse"
       id="clipPath33">
      <path
         d="M 0,1500 H 1500 V 0 H 0 Z"
         transform="translate(-1318.0698,-507.20169)"
         id="path33" />
    </clipPath>
    <clipPath
       clipPathUnits="userSpaceOnUse"
       id="clipPath35">
      <path
         d="M 0,1500 H 1500 V 0 H 0 Z"
         transform="translate(-982.2052,-1056.4307)"
         id="path35" />
    </clipPath>
    <clipPath
       clipPathUnits="userSpaceOnUse"
       id="clipPath37">
      <path
         d="M 0,1500 H 1500 V 0 H 0 Z"
         transform="translate(-882.12715,-1120.2795)"
         id="path37" />
    </clipPath>
    <clipPath
       clipPathUnits="userSpaceOnUse"
       id="clipPath39">
      <path
         d="M 0,1500 H 1500 V 0 H 0 Z"
         transform="translate(-1213.1053,-788.21472)"
         id="path39" />
    </clipPath>
    <clipPath
       clipPathUnits="userSpaceOnUse"
       id="clipPath41">
      <path
         d="M 0,1500 H 1500 V 0 H 0 Z"
         transform="translate(-1106.4501,-769.99102)"
         id="path41" />
    </clipPath>
    <clipPath
       clipPathUnits="userSpaceOnUse"
       id="clipPath43">
      <path
         d="M 0,1500 H 1500 V 0 H 0 Z"
         transform="translate(-1130.4834,-767.06392)"
         id="path43" />
    </clipPath>
    <clipPath
       clipPathUnits="userSpaceOnUse"
       id="clipPath45">
      <path
         d="M 0,1500 H 1500 V 0 H 0 Z"
         transform="translate(-1117.5424,-751.19592)"
         id="path45" />
    </clipPath>
    <clipPath
       clipPathUnits="userSpaceOnUse"
       id="clipPath47">
      <path
         d="M 0,1500 H 1500 V 0 H 0 Z"
         transform="translate(-723.21482,-722.09019)"
         id="path47" />
    </clipPath>
    <clipPath
       clipPathUnits="userSpaceOnUse"
       id="clipPath49">
      <path
         d="M 0,1500 H 1500 V 0 H 0 Z"
         transform="translate(-959.03245,-857.71302)"
         id="path49" />
    </clipPath>
    <clipPath
       clipPathUnits="userSpaceOnUse"
       id="clipPath51">
      <path
         d="M 0,1500 H 1500 V 0 H 0 Z"
         transform="translate(-982.5361,-869.53942)"
         id="path51" />
    </clipPath>
    <clipPath
       clipPathUnits="userSpaceOnUse"
       id="clipPath53">
      <path
         d="M 0,1500 H 1500 V 0 H 0 Z"
         transform="translate(-956.1874,-741.43689)"
         id="path53" />
    </clipPath>
    <clipPath
       clipPathUnits="userSpaceOnUse"
       id="clipPath55">
      <path
         d="M 0,1500 H 1500 V 0 H 0 Z"
         transform="translate(-465.14701,-869.26502)"
         id="path55" />
    </clipPath>
    <clipPath
       clipPathUnits="userSpaceOnUse"
       id="clipPath57">
      <path
         d="M 0,1500 H 1500 V 0 H 0 Z"
         transform="translate(-760.12142,-1214.7668)"
         id="path57" />
    </clipPath>
  </defs>
  <sodipodi:namedview
     id="namedview1"
     pagecolor="#ffffff"
     bordercolor="#000000"
     borderopacity="0.25"
     inkscape:showpageshadow="2"
     inkscape:pageopacity="0.0"
     inkscape:pagecheckerboard="0"
     inkscape:deskcolor="#d1d1d1"
     inkscape:export-bgcolor="#ffffffff">
    <inkscape:page
       x="0"
       y="0"
       inkscape:label="1"
       id="page1"
       width="580.00201"
       height="113.00001"
       margin="344.052 181.42667 263.60001 214.81334"
       bleed="0"
       inkscape:export-filename="211003_Wolflogo4.png"
       inkscape:export-xdpi="96"
       inkscape:export-ydpi="96" />
  </sodipodi:namedview>
  <g
     id="layer-MC0"
     inkscape:groupmode="layer"
     inkscape:label="PInk"
     style="display:none">
    <path
       id="path1"
       d="M 0,0 H 1500 V 1500 H 0 Z"
       style="fill:#ec008c;fill-opacity:1;fill-rule:nonzero;stroke:none"
       transform="matrix(1.3333333,0,0,-1.3333333,0,2000)" />
  </g>
  <g
     id="layer-MC1"
     inkscape:groupmode="layer"
     inkscape:label="0.NewLogo-Concept Image">
    <g
       id="g59"
       transform="matrix(0.25555724,0,0,0.25555724,-99.43579,-65.365205)">
      <g
         id="g57"
         transform="translate(813.55932,-959.21551)">
        <path
           id="path6"
           d="M 0,0 C 0,1.548 0.581,8.125 2.128,15.089 L 17.411,84.151 H 57.068 L 41.205,12.574 c -0.58,-2.514 -0.967,-6.19 -0.967,-8.125 0.194,-8.898 5.997,-17.604 20.313,-17.604 14.315,0 21.859,9.866 24.568,22.247 l 16.637,75.059 h 39.657 L 124.583,8.318 C 117.812,-22.827 100.595,-47.202 58.035,-47.202 18.765,-47.202 0,-27.664 0,0"
           style="fill:#002b5c;fill-opacity:1;fill-rule:nonzero;stroke:none"
           transform="matrix(1.3333333,0,0,-1.3333333,666.496,1593.0117)"
           clip-path="url(#clipPath7)" />
        <path
           id="path8"
           d="M 0,0 -15.863,-72.737 H -54.94 L -26.503,56.295 H 13.734 L 43.526,-12.188 58.615,56.295 H 97.692 L 69.255,-72.737 H 31.726 Z"
           style="fill:#002b5c;fill-opacity:1;fill-rule:nonzero;stroke:none"
           transform="matrix(1.3333333,0,0,-1.3333333,918.2408,1555.8697)"
           clip-path="url(#clipPath9)" />
        <path
           id="path10"
           d="M 0,0 H 39.077 L 10.64,-129.032 h -39.077 z"
           style="fill:#002b5c;fill-opacity:1;fill-rule:nonzero;stroke:none"
           transform="matrix(1.3333333,0,0,-1.3333333,1076.3567,1480.8099)"
           clip-path="url(#clipPath11)" />
        <path
           id="path12"
           d="m 0,0 h -34.628 l 7.544,34.048 H 81.056 L 73.511,0 H 39.076 L 18.184,-94.984 h -39.078 z"
           style="fill:#002b5c;fill-opacity:1;fill-rule:nonzero;stroke:none"
           transform="matrix(1.3333333,0,0,-1.3333333,1183.1419,1526.2071)"
           clip-path="url(#clipPath13)" />
        <path
           id="path14"
           d="M 0,0 H 97.886 L 90.728,-32.5 H 31.919 L 28.631,-47.59 H 86.086 L 78.928,-80.089 H 21.473 l -3.676,-16.443 h 58.809 l -7.158,-32.5 h -97.885 z"
           style="fill:#002b5c;fill-opacity:1;fill-rule:nonzero;stroke:none"
           transform="matrix(1.3333333,0,0,-1.3333333,1309.7851,1480.8099)"
           clip-path="url(#clipPath15)" />
        <path
           id="path16"
           d="M 0,0 C 0,13.735 -10.06,24.568 -25.148,24.568 H -43.14 l -13.347,-60.936 h 17.99 C -14.122,-36.368 0,-19.731 0,0 m 40.432,2.902 c 0,-32.693 -20.7,-73.318 -86.086,-73.318 h -57.455 l 28.437,129.032 h 56.681 c 28.631,0 58.423,-21.473 58.423,-55.714"
           style="fill:#002b5c;fill-opacity:1;fill-rule:nonzero;stroke:none"
           transform="matrix(1.3333333,0,0,-1.3333333,1563.0753,1558.9648)"
           clip-path="url(#clipPath17)" />
        <path
           id="path18"
           d="m 0,0 h -52.448 l -12.289,-55.96 h -44.328 l 32.259,146.371 h 44.327 L -43.889,38.622 H 8.558 L 19.97,90.411 H 64.298 L 32.039,-55.96 h -44.328 z"
           style="fill:#96c11f;fill-opacity:1;fill-rule:nonzero;stroke:none"
           transform="matrix(1.3333333,0,0,-1.3333333,360.234,1355.6237)"
           clip-path="url(#clipPath19)" />
        <path
           id="path20"
           d="M 0,0 H 33.356 L 28.309,53.764 Z M 36.428,-36.867 H -19.531 L -29.406,-55.74 H -79.659 L 6.584,90.631 H 62.322 L 84.047,-55.74 H 38.184 Z"
           style="fill:#96c11f;fill-opacity:1;fill-rule:nonzero;stroke:none"
           transform="matrix(1.3333333,0,0,-1.3333333,519.70613,1355.9169)"
           clip-path="url(#clipPath21)" />
        <path
           id="path22"
           d="M 0,0 C 34.014,0 54.861,-19.311 62.981,-38.403 L 22.164,-55.081 c -3.073,8.998 -15.142,16.02 -28.529,16.02 -22.383,0 -40.158,-18.873 -40.158,-42.134 0,-15.361 11.63,-31.161 32.917,-31.161 8.778,0 15.362,2.414 21.067,6.583 l 1.317,6.583 h -28.309 l 8.339,36.428 h 71.32 L 46.96,-121.793 c -13.824,-18.433 -36.427,-29.625 -62.98,-29.625 -40.158,0 -76.367,24.359 -76.367,67.151 C -92.387,-36.208 -55.521,0 0,0"
           style="fill:#96c11f;fill-opacity:1;fill-rule:nonzero;stroke:none"
           transform="matrix(1.3333333,0,0,-1.3333333,761.9828,1231.8568)"
           clip-path="url(#clipPath23)" />
        <path
           id="path24"
           d="M 0,0 H 111.039 L 102.92,-36.867 H 36.208 L 32.477,-53.984 H 97.653 L 89.534,-90.851 H 24.358 l -4.17,-18.653 H 86.9 l -8.119,-36.867 h -111.04 z"
           style="fill:#96c11f;fill-opacity:1;fill-rule:nonzero;stroke:none"
           transform="matrix(1.3333333,0,0,-1.3333333,886.05213,1235.0755)"
           clip-path="url(#clipPath25)" />
        <path
           id="path26"
           d="m 0,0 h 44.328 l -23.7,-107.748 h 55.52 l -8.559,-38.623 h -99.848 z"
           style="fill:#96c11f;fill-opacity:1;fill-rule:nonzero;stroke:none"
           transform="matrix(1.3333333,0,0,-1.3333333,1060.4431,1235.0755)"
           clip-path="url(#clipPath27)" />
        <path
           id="path28"
           d="M 0,0 H 33.356 L 28.308,53.764 Z M 36.428,-36.867 H -19.531 L -29.406,-55.74 H -79.659 L 6.584,90.631 H 62.322 L 84.047,-55.74 H 38.184 Z"
           style="fill:#96c11f;fill-opacity:1;fill-rule:nonzero;stroke:none"
           transform="matrix(1.3333333,0,0,-1.3333333,1259.4131,1355.9169)"
           clip-path="url(#clipPath29)" />
        <path
           id="path30"
           d="M 0,0 -17.996,-82.512 H -62.323 L -30.065,63.859 H 15.58 l 33.795,-77.684 17.117,77.684 h 44.327 L 78.561,-82.512 H 35.989 Z"
           style="fill:#96c11f;fill-opacity:1;fill-rule:nonzero;stroke:none"
           transform="matrix(1.3333333,0,0,-1.3333333,1465.1156,1320.2208)"
           clip-path="url(#clipPath31)" />
        <path
           id="path32"
           d="m 0,0 c 0,15.58 -11.411,27.869 -28.528,27.869 h -20.408 l -15.142,-69.126 h 20.409 C -16.019,-41.257 0,-22.384 0,0 m 45.865,3.291 c 0,-37.087 -23.481,-83.17 -97.654,-83.17 h -65.176 l 32.259,146.371 h 64.298 c 32.478,0 66.273,-24.358 66.273,-63.201"
           style="fill:#96c11f;fill-opacity:1;fill-rule:nonzero;stroke:none"
           transform="matrix(1.3333333,0,0,-1.3333333,1757.4263,1323.7311)"
           clip-path="url(#clipPath33)" />
      </g>
      <g
         id="g58"
         transform="matrix(0.50000023,0,0,0.50000023,206.28596,131.80056)">
        <path
           id="path2"
           d="m 0,0 c -69.114,99.543 -143.474,119.273 -143.474,119.273 0,0 10.165,54.227 -89.866,96.689 0,45.384 65.688,85.616 65.688,85.616 0,0 -72.087,27.343 -159.985,-5.02 8.498,44.333 38.722,90.862 38.722,90.862 0,0 -155.644,19.493 -330.582,-149.322 -182.462,-82.9 -235.67,-174.594 -235.67,-174.594 0,0 78.046,30.154 85.157,26.279 C -798.602,57 -878.906,-37.72 -889.404,-67.634 c 195.979,59.434 217.022,35.812 217.022,35.812 0,0 -50.575,-65.324 -67.72,-93.587 196.279,44.942 247.374,37.798 247.374,37.798 0,0 -19.064,-13.686 -22.473,-52.828 103.195,60.36 232.76,16.404 250.738,11.273 77.094,-25.633 130.406,22.713 130.406,22.713 0,0 62.691,-4.151 134.343,100.805 0,0 2.116,2.704 -0.286,5.648"
           style="fill:#ffffff;fill-opacity:1;fill-rule:nonzero;stroke:none"
           transform="matrix(1.3333333,0,0,-1.3333333,1646.8761,960.69013)"
           clip-path="url(#clipPath3)" />
        <path
           id="path4"
           d="m 0,0 c 36.045,22.762 1.479,45.274 1.479,45.274 l -16.894,-1.408 c 0,0 15.205,-37.729 -22.243,-37.729 -29.242,0 -73.346,23.793 -91.271,34.219 18.113,-11.463 37.271,-27.697 56.931,-50.343 C -62.827,-18.457 -39.788,-26.042 0,0"
           style="fill:#d3d3d3;fill-opacity:1;fill-rule:nonzero;stroke:none"
           transform="matrix(1.3333333,0,0,-1.3333333,1539.1989,1034.0084)"
           clip-path="url(#clipPath5)" />
        <path
           id="path34"
           d="m 0,0 c 0,0 -41.785,2.23 -79.285,-44.317 h 55.103 C -21.513,-17.104 0,0 0,0"
           style="fill:#d3d3d3;fill-opacity:1;fill-rule:nonzero;stroke:none"
           transform="matrix(1.3333333,0,0,-1.3333333,1309.6069,591.42573)"
           clip-path="url(#clipPath35)" />
        <path
           id="path36"
           d="M 0,0 C 0.015,0.031 0.029,0.062 0.045,0.094 0.034,0.093 0.018,0.091 0.007,0.09 Z"
           style="fill:#d3d3d3;fill-opacity:1;fill-rule:nonzero;stroke:none"
           transform="matrix(1.3333333,0,0,-1.3333333,1176.1695,506.294)"
           clip-path="url(#clipPath37)" />
        <path
           id="path38"
           d="m 0,0 c -39.929,44.635 -131.906,100.947 -153.463,68.414 13.205,-6.979 21.989,-21.922 21.989,-21.922 0,0 82.659,-11.539 101.997,-46.307 C -20.874,3.067 -10.792,3.953 0,0"
           style="fill:#d3d3d3;fill-opacity:1;fill-rule:nonzero;stroke:none"
           transform="matrix(1.3333333,0,0,-1.3333333,1617.4737,949.04707)"
           clip-path="url(#clipPath39)" />
        <path
           id="path40"
           d="m 0,0 c 0,-3.328 -2.698,-6.027 -6.027,-6.027 -3.328,0 -6.026,2.699 -6.026,6.027 0,3.328 2.698,6.027 6.026,6.027 C -2.698,6.027 0,3.328 0,0"
           style="fill:#002b5c;fill-opacity:1;fill-rule:nonzero;stroke:none"
           transform="matrix(1.3333333,0,0,-1.3333333,1475.2668,973.34533)"
           clip-path="url(#clipPath41)" />
        <path
           id="path42"
           d="m 0,0 c 0,-3.328 -2.698,-6.027 -6.027,-6.027 -3.328,0 -6.026,2.699 -6.026,6.027 0,3.328 2.698,6.027 6.026,6.027 C -2.698,6.027 0,3.328 0,0"
           style="fill:#002b5c;fill-opacity:1;fill-rule:nonzero;stroke:none"
           transform="matrix(1.3333333,0,0,-1.3333333,1507.3111,977.24813)"
           clip-path="url(#clipPath43)" />
        <path
           id="path44"
           d="m 0,0 c 0,-3.328 -2.698,-6.027 -6.027,-6.027 -3.328,0 -6.026,2.699 -6.026,6.027 0,3.328 2.698,6.027 6.026,6.027 C -2.698,6.027 0,3.328 0,0"
           style="fill:#002b5c;fill-opacity:1;fill-rule:nonzero;stroke:none"
           transform="matrix(1.3333333,0,0,-1.3333333,1490.0565,998.40547)"
           clip-path="url(#clipPath45)" />
        <path
           id="path46"
           d="M 0,0 C 0,0 21.774,50.305 109.996,62.694 63.445,59.02 29.658,47.302 29.658,47.302 c 0,0 49.93,60.066 135.524,62.694 -4.881,12.013 -38.292,22.149 -49.555,20.272 25.528,6.758 39.043,10.887 102.488,9.386 -4.171,15.05 -12.192,29.388 -19.374,40.203 -0.001,0.001 -0.002,0.002 -0.003,0.002 -0.682,0.576 -1.37,1.204 -2.066,1.886 -0.074,0.072 -0.147,0.143 -0.221,0.217 -0.186,0.185 -0.372,0.375 -0.559,0.568 -0.096,0.1 -0.193,0.201 -0.289,0.303 -0.18,0.189 -0.36,0.38 -0.541,0.578 -0.102,0.112 -0.206,0.229 -0.308,0.344 -0.302,0.336 -0.607,0.685 -0.912,1.046 -0.136,0.161 -0.272,0.318 -0.408,0.483 -0.15,0.182 -0.302,0.372 -0.453,0.559 -0.15,0.187 -0.3,0.374 -0.451,0.567 -0.145,0.184 -0.29,0.372 -0.435,0.563 -0.168,0.218 -0.336,0.443 -0.505,0.67 -0.132,0.178 -0.265,0.354 -0.398,0.538 -0.23,0.315 -0.462,0.642 -0.694,0.973 -0.101,0.143 -0.201,0.284 -0.302,0.43 -0.277,0.4 -0.555,0.811 -0.836,1.233 -0.11,0.167 -0.223,0.341 -0.335,0.512 -0.213,0.326 -0.426,0.657 -0.641,0.996 -0.119,0.187 -0.238,0.376 -0.358,0.567 -0.222,0.356 -0.446,0.721 -0.672,1.092 -0.105,0.175 -0.21,0.346 -0.317,0.524 -0.33,0.552 -0.663,1.115 -0.999,1.7 0.332,-0.153 31.367,43.468 118.977,11.513 -1.705,1.267 -3.475,2.501 -5.301,3.697 -0.065,0.043 -0.13,0.085 -0.195,0.127 -1.782,1.162 -3.62,2.285 -5.508,3.366 -0.076,0.043 -0.152,0.087 -0.228,0.131 -0.933,0.53 -1.877,1.05 -2.834,1.559 -0.071,0.038 -0.142,0.075 -0.213,0.112 -0.967,0.511 -1.943,1.012 -2.933,1.499 l -0.015,0.007 c -0.971,0.478 -1.956,0.941 -2.949,1.394 -0.137,0.063 -0.275,0.126 -0.413,0.188 -0.989,0.447 -1.987,0.883 -2.996,1.303 -0.033,0.014 -0.067,0.027 -0.1,0.041 -0.977,0.406 -1.965,0.797 -2.96,1.178 -0.139,0.053 -0.278,0.107 -0.417,0.16 -0.995,0.376 -2,0.738 -3.012,1.087 -0.169,0.058 -0.339,0.115 -0.509,0.172 -1.003,0.341 -2.012,0.671 -3.031,0.983 -0.038,0.012 -0.075,0.024 -0.112,0.036 -1.034,0.316 -2.078,0.613 -3.127,0.899 -0.208,0.057 -0.416,0.114 -0.625,0.169 -1.035,0.276 -2.075,0.539 -3.124,0.784 -0.141,0.033 -0.284,0.064 -0.425,0.096 -0.972,0.223 -1.95,0.432 -2.933,0.629 -0.178,0.035 -0.355,0.073 -0.533,0.107 -1.051,0.204 -2.108,0.39 -3.171,0.562 -0.226,0.037 -0.454,0.071 -0.681,0.107 -1.094,0.169 -2.191,0.327 -3.297,0.461 0,0 0,0 -10e-4,0 -0.061,0.009 -0.134,0.021 -0.218,0.036 -0.168,0.028 -0.383,0.065 -0.643,0.11 -0.259,0.044 -0.564,0.096 -0.913,0.154 -0.175,0.028 -0.36,0.059 -0.557,0.09 -0.393,0.062 -0.829,0.129 -1.309,0.199 -1.917,0.28 -4.516,0.607 -7.736,0.867 -0.805,0.066 -1.649,0.127 -2.531,0.182 -0.44,0.028 -0.891,0.054 -1.35,0.078 -1.838,0.098 -3.825,0.169 -5.954,0.2 -0.532,0.007 -1.073,0.012 -1.622,0.015 -21.986,0.09 -57.902,-4.252 -99.893,-26.998 13.675,-7.481 22.586,-16.839 27.98,-24.062 0.499,-0.669 0.967,-1.318 1.407,-1.946 0.662,-0.946 1.257,-1.842 1.79,-2.68 0.404,-0.635 0.772,-1.234 1.105,-1.796 1.806,-3.046 2.602,-4.955 2.602,-4.955 v 0 c 0,0 -4.882,0.189 -13.619,-0.082 -0.041,-0.001 -0.084,-0.003 -0.125,-0.004 -7.355,-0.231 -17.419,-0.789 -29.586,-2.055 -0.224,-0.023 -0.45,-0.047 -0.675,-0.071 -2.13,-0.224 -4.318,-0.469 -6.572,-0.739 -1.191,-0.143 -2.399,-0.292 -3.624,-0.448 -4.898,-0.626 -10.058,-1.362 -15.45,-2.227 -2.696,-0.433 -5.45,-0.898 -8.258,-1.399 -2.808,-0.5 -5.671,-1.034 -8.583,-1.607 -4.37,-0.858 -8.852,-1.8 -13.436,-2.833 -1.528,-0.345 -3.067,-0.699 -4.617,-1.065 -3.099,-0.73 -6.242,-1.502 -9.424,-2.319 -3.182,-0.817 -6.403,-1.678 -9.659,-2.586 -6.514,-1.815 -13.169,-3.818 -19.936,-6.026 -1.692,-0.553 -3.391,-1.118 -5.096,-1.696 -8.527,-2.891 -17.217,-6.111 -26.012,-9.698 -1.759,-0.717 -3.522,-1.449 -5.289,-2.196 -17.669,-7.47 -35.71,-16.435 -53.656,-27.195 v 0 0 c 26.508,33.774 56.773,58.945 79.872,75.406 0.7,0.498 1.394,0.989 2.08,1.472 20.596,14.484 34.996,21.767 34.996,21.767 H 48.86 c -0.017,0.007 -21.028,8.596 -70.702,-1.84 -0.831,171.974 174.836,196.864 180.613,197.636 -0.004,-0.001 -0.009,-0.001 -0.013,-0.002 -0.224,-0.022 -0.566,-0.055 -1.027,-0.101 -0.014,-0.002 -0.026,-0.003 -0.04,-0.004 -0.111,-0.012 -0.231,-0.024 -0.355,-0.037 -0.02,-0.002 -0.038,-0.004 -0.058,-0.006 -0.13,-0.014 -0.268,-0.028 -0.412,-0.043 -0.017,-0.002 -0.033,-0.004 -0.051,-0.006 -0.154,-0.017 -0.317,-0.034 -0.487,-0.053 -0.008,-10e-4 -0.016,-0.002 -0.025,-0.003 -0.174,-0.019 -0.356,-0.04 -0.546,-0.061 -0.007,-10e-4 -0.014,-0.002 -0.021,-0.003 -0.59,-0.067 -1.255,-0.147 -1.992,-0.24 -0.002,-10e-4 -0.004,-10e-4 -0.006,-10e-4 -7.153,-0.908 -21.061,-3.121 -39.005,-8.376 -0.025,-0.008 -0.051,-0.016 -0.077,-0.023 -0.592,-0.174 -1.188,-0.351 -1.789,-0.531 -0.034,-0.01 -0.069,-0.021 -0.102,-0.031 -0.591,-0.177 -1.186,-0.358 -1.785,-0.542 -0.056,-0.017 -0.113,-0.035 -0.169,-0.052 -0.578,-0.178 -1.159,-0.359 -1.744,-0.543 -0.075,-0.024 -0.152,-0.048 -0.228,-0.072 -0.572,-0.181 -1.146,-0.363 -1.725,-0.55 -0.075,-0.024 -0.151,-0.049 -0.226,-0.073 -0.575,-0.187 -1.154,-0.375 -1.736,-0.567 -0.101,-0.033 -0.203,-0.068 -0.305,-0.101 -0.558,-0.185 -1.119,-0.372 -1.684,-0.563 -0.118,-0.04 -0.236,-0.081 -0.355,-0.121 -0.555,-0.188 -1.113,-0.378 -1.674,-0.572 -0.118,-0.041 -0.236,-0.083 -0.354,-0.123 -0.558,-0.194 -1.118,-0.39 -1.681,-0.589 -0.139,-0.049 -0.28,-0.099 -0.419,-0.149 -0.546,-0.194 -1.093,-0.389 -1.644,-0.588 -0.151,-0.055 -0.305,-0.112 -0.457,-0.167 -0.545,-0.198 -1.091,-0.398 -1.64,-0.601 -0.152,-0.056 -0.304,-0.113 -0.455,-0.17 -0.55,-0.204 -1.102,-0.41 -1.656,-0.62 -0.16,-0.061 -0.322,-0.123 -0.482,-0.184 -0.548,-0.208 -1.098,-0.419 -1.651,-0.633 -0.169,-0.065 -0.34,-0.132 -0.51,-0.199 -0.545,-0.212 -1.092,-0.426 -1.642,-0.643 -0.178,-0.071 -0.359,-0.143 -0.538,-0.215 -0.541,-0.215 -1.084,-0.433 -1.629,-0.653 -0.192,-0.078 -0.385,-0.157 -0.577,-0.235 -0.538,-0.219 -1.076,-0.439 -1.617,-0.663 -0.198,-0.082 -0.398,-0.166 -0.597,-0.248 -0.536,-0.224 -1.073,-0.448 -1.612,-0.677 -0.205,-0.086 -0.411,-0.174 -0.617,-0.262 -0.538,-0.229 -1.077,-0.459 -1.618,-0.694 -0.208,-0.089 -0.417,-0.181 -0.625,-0.271 -0.538,-0.234 -1.076,-0.469 -1.616,-0.708 -0.218,-0.096 -0.436,-0.194 -0.655,-0.291 -0.537,-0.239 -1.074,-0.479 -1.614,-0.723 -0.22,-0.1 -0.441,-0.2 -0.662,-0.301 -0.535,-0.243 -1.071,-0.488 -1.609,-0.736 -0.232,-0.108 -0.466,-0.216 -0.698,-0.324 -0.533,-0.248 -1.066,-0.497 -1.602,-0.749 -0.233,-0.11 -0.467,-0.222 -0.7,-0.333 -0.534,-0.253 -1.069,-0.508 -1.605,-0.767 -0.243,-0.117 -0.486,-0.235 -0.729,-0.353 -0.529,-0.256 -1.059,-0.515 -1.59,-0.776 -0.25,-0.123 -0.501,-0.248 -0.751,-0.372 -0.53,-0.263 -1.06,-0.527 -1.592,-0.794 -0.251,-0.127 -0.502,-0.254 -0.754,-0.382 -0.529,-0.268 -1.058,-0.537 -1.588,-0.81 -0.261,-0.134 -0.523,-0.269 -0.784,-0.405 -0.525,-0.271 -1.05,-0.544 -1.576,-0.82 -0.265,-0.139 -0.53,-0.28 -0.796,-0.42 -0.526,-0.279 -1.054,-0.559 -1.582,-0.843 -0.268,-0.143 -0.536,-0.288 -0.804,-0.432 -0.523,-0.283 -1.047,-0.568 -1.573,-0.856 -0.275,-0.15 -0.55,-0.302 -0.825,-0.454 -0.522,-0.288 -1.045,-0.578 -1.569,-0.871 -0.279,-0.156 -0.558,-0.314 -0.838,-0.472 -0.521,-0.293 -1.042,-0.588 -1.564,-0.887 -0.284,-0.162 -0.568,-0.325 -0.853,-0.489 -0.516,-0.298 -1.034,-0.597 -1.552,-0.9 -0.292,-0.17 -0.584,-0.342 -0.876,-0.513 -0.514,-0.303 -1.029,-0.607 -1.544,-0.915 -0.295,-0.175 -0.589,-0.352 -0.884,-0.529 -0.514,-0.308 -1.028,-0.619 -1.542,-0.933 -0.299,-0.181 -0.597,-0.364 -0.895,-0.547 -0.513,-0.315 -1.026,-0.631 -1.539,-0.951 -0.302,-0.187 -0.603,-0.375 -0.904,-0.564 -0.513,-0.321 -1.026,-0.645 -1.539,-0.971 -0.302,-0.192 -0.605,-0.385 -0.907,-0.579 -0.512,-0.327 -1.024,-0.657 -1.537,-0.99 -0.306,-0.199 -0.613,-0.398 -0.92,-0.599 -0.509,-0.333 -1.019,-0.669 -1.53,-1.007 -0.309,-0.205 -0.618,-0.411 -0.928,-0.617 -0.508,-0.34 -1.016,-0.682 -1.524,-1.026 -0.314,-0.212 -0.627,-0.425 -0.941,-0.639 -0.502,-0.342 -1.004,-0.687 -1.507,-1.035 -0.322,-0.223 -0.644,-0.446 -0.966,-0.67 -0.498,-0.347 -0.995,-0.696 -1.493,-1.048 -0.324,-0.228 -0.648,-0.458 -0.972,-0.688 -0.499,-0.355 -0.997,-0.713 -1.496,-1.073 -0.323,-0.233 -0.646,-0.466 -0.969,-0.701 -0.498,-0.362 -0.996,-0.727 -1.495,-1.094 -0.325,-0.24 -0.651,-0.481 -0.977,-0.723 -0.494,-0.367 -0.989,-0.737 -1.483,-1.109 -0.331,-0.249 -0.661,-0.498 -0.991,-0.748 -0.491,-0.372 -0.981,-0.748 -1.472,-1.125 -0.333,-0.256 -0.666,-0.512 -0.999,-0.77 -0.489,-0.379 -0.977,-0.761 -1.466,-1.144 -0.334,-0.263 -0.667,-0.525 -1.001,-0.789 -0.491,-0.389 -0.981,-0.781 -1.471,-1.174 -0.331,-0.265 -0.661,-0.53 -0.992,-0.797 -0.488,-0.395 -0.975,-0.794 -1.463,-1.193 -0.337,-0.276 -0.674,-0.553 -1.011,-0.831 -0.481,-0.398 -0.963,-0.8 -1.444,-1.202 -0.339,-0.285 -0.679,-0.569 -1.018,-0.856 -0.479,-0.404 -0.958,-0.813 -1.436,-1.222 -0.342,-0.292 -0.683,-0.584 -1.025,-0.879 -0.475,-0.41 -0.95,-0.825 -1.426,-1.24 -0.343,-0.3 -0.687,-0.6 -1.03,-0.903 -0.472,-0.417 -0.944,-0.837 -1.416,-1.259 -0.345,-0.308 -0.69,-0.616 -1.034,-0.926 -0.47,-0.424 -0.939,-0.851 -1.408,-1.28 -0.346,-0.315 -0.692,-0.631 -1.037,-0.949 -0.467,-0.43 -0.933,-0.864 -1.399,-1.299 -0.347,-0.324 -0.693,-0.646 -1.039,-0.972 -0.467,-0.44 -0.933,-0.883 -1.398,-1.328 -0.344,-0.327 -0.688,-0.655 -1.031,-0.985 -0.463,-0.446 -0.924,-0.895 -1.386,-1.345 -0.348,-0.34 -0.697,-0.679 -1.045,-1.022 -0.456,-0.449 -0.911,-0.902 -1.366,-1.356 -0.35,-0.348 -0.699,-0.696 -1.048,-1.047 -0.455,-0.458 -0.909,-0.921 -1.363,-1.383 -0.348,-0.355 -0.696,-0.709 -1.044,-1.067 -0.452,-0.466 -0.903,-0.936 -1.355,-1.406 -0.348,-0.363 -0.696,-0.725 -1.043,-1.091 -0.449,-0.472 -0.897,-0.95 -1.345,-1.428 -0.348,-0.37 -0.696,-0.74 -1.043,-1.114 -0.445,-0.479 -0.889,-0.963 -1.333,-1.448 -0.348,-0.38 -0.697,-0.759 -1.045,-1.142 -0.443,-0.487 -0.884,-0.98 -1.325,-1.472 -0.347,-0.387 -0.693,-0.771 -1.038,-1.161 -0.44,-0.495 -0.878,-0.996 -1.316,-1.496 -0.348,-0.396 -0.695,-0.791 -1.042,-1.191 -0.432,-0.498 -0.862,-1.002 -1.293,-1.505 -0.35,-0.408 -0.7,-0.815 -1.049,-1.227 -0.43,-0.508 -0.859,-1.022 -1.288,-1.535 -0.345,-0.413 -0.691,-0.824 -1.035,-1.239 -0.43,-0.52 -0.859,-1.046 -1.288,-1.57 -0.342,-0.42 -0.685,-0.837 -1.027,-1.26 -0.424,-0.524 -0.846,-1.054 -1.268,-1.583 -0.344,-0.431 -0.689,-0.861 -1.033,-1.296 -0.419,-0.53 -0.836,-1.067 -1.253,-1.602 -0.343,-0.441 -0.687,-0.879 -1.03,-1.323 -0.415,-0.539 -0.829,-1.084 -1.242,-1.628 -0.342,-0.45 -0.685,-0.897 -1.026,-1.349 -0.413,-0.549 -0.823,-1.104 -1.235,-1.658 -0.338,-0.455 -0.677,-0.908 -1.013,-1.366 -0.411,-0.559 -0.82,-1.125 -1.229,-1.689 -0.335,-0.463 -0.671,-0.923 -1.005,-1.389 -0.406,-0.566 -0.81,-1.139 -1.214,-1.711 -0.335,-0.472 -0.67,-0.942 -1.003,-1.419 -0.399,-0.57 -0.795,-1.147 -1.192,-1.722 -0.336,-0.487 -0.672,-0.97 -1.007,-1.461 -0.395,-0.578 -0.787,-1.164 -1.18,-1.748 -0.332,-0.493 -0.664,-0.983 -0.995,-1.479 -0.392,-0.589 -0.781,-1.186 -1.17,-1.78 -0.33,-0.503 -0.662,-1.002 -0.99,-1.509 -0.385,-0.594 -0.768,-1.196 -1.151,-1.795 -0.329,-0.513 -0.658,-1.023 -0.985,-1.541 -0.38,-0.601 -0.758,-1.21 -1.136,-1.817 -0.327,-0.525 -0.656,-1.047 -0.982,-1.576 -0.377,-0.612 -0.751,-1.233 -1.126,-1.851 -0.322,-0.529 -0.645,-1.055 -0.965,-1.589 -0.375,-0.624 -0.746,-1.256 -1.118,-1.886 -0.318,-0.538 -0.638,-1.073 -0.955,-1.615 -0.371,-0.635 -0.738,-1.277 -1.106,-1.917 -0.314,-0.544 -0.629,-1.084 -0.94,-1.632 -0.372,-0.654 -0.74,-1.316 -1.109,-1.975 -0.306,-0.545 -0.612,-1.085 -0.916,-1.634 -0.363,-0.655 -0.722,-1.32 -1.082,-1.981 -0.307,-0.561 -0.615,-1.119 -0.919,-1.685 -0.366,-0.679 -0.728,-1.368 -1.091,-2.053 -0.294,-0.554 -0.589,-1.103 -0.881,-1.66 -0.376,-0.718 -0.747,-1.445 -1.12,-2.169 -0.276,-0.536 -0.554,-1.067 -0.828,-1.606 -0.371,-0.728 -0.737,-1.465 -1.105,-2.2 -0.273,-0.545 -0.548,-1.086 -0.819,-1.635 -0.369,-0.746 -0.733,-1.502 -1.099,-2.255 -0.265,-0.545 -0.533,-1.085 -0.796,-1.633 -0.417,-0.869 -0.83,-1.749 -1.243,-2.626 -0.207,-0.44 -0.416,-0.875 -0.622,-1.316 -0.618,-1.325 -1.231,-2.66 -1.839,-4.005 -3.65,14.639 6.823,53.471 6.823,53.471 0,0 -0.222,-0.034 -0.661,-0.117 -0.219,-0.041 -0.492,-0.095 -0.818,-0.162 -1.466,-0.303 -4.005,-0.887 -7.533,-1.911 -0.783,-0.228 -1.616,-0.477 -2.497,-0.75 -1.321,-0.41 -2.75,-0.872 -4.283,-1.393 -1.534,-0.521 -3.172,-1.101 -4.912,-1.746 -1.74,-0.644 -3.582,-1.354 -5.522,-2.134 -1.293,-0.52 -2.631,-1.072 -4.011,-1.656 -3.45,-1.462 -7.169,-3.131 -11.141,-5.035 -4.767,-2.284 -9.899,-4.907 -15.372,-7.914 -1.825,-1.003 -3.687,-2.048 -5.586,-3.139 -2.849,-1.635 -5.781,-3.37 -8.793,-5.211 -1.004,-0.614 -2.017,-1.24 -3.039,-1.878 -1.421,-0.887 -2.866,-1.807 -4.322,-2.741 -1.267,-0.814 -2.548,-1.646 -3.84,-2.497 -2.557,-1.682 -5.155,-3.427 -7.807,-5.256 -1.107,-0.763 -2.222,-1.54 -3.344,-2.33 -2.893,-2.034 -5.844,-4.167 -8.842,-6.382 -0.993,-0.734 -1.993,-1.479 -2.998,-2.233 -4.853,-3.645 -9.838,-7.53 -14.946,-11.67 -1.793,-1.453 -3.596,-2.926 -5.418,-4.442 -5.038,-4.191 -10.189,-8.627 -15.446,-13.322 20.28,7.412 40.564,11.257 54.431,13.203 10.785,1.513 17.688,1.878 17.688,1.878 0,0 -7.5,-2.311 -21.727,-11.668 -1.535,-1.009 -3.157,-2.111 -4.848,-3.29 -0.539,-0.377 -1.087,-0.762 -1.642,-1.157 -2.787,-1.98 -5.772,-4.192 -8.95,-6.658 -1.101,-0.854 -2.217,-1.727 -3.364,-2.644 -0.798,-0.637 -1.608,-1.291 -2.429,-1.959 -1.642,-1.338 -3.328,-2.738 -5.058,-4.204 -0.865,-0.732 -1.741,-1.482 -2.628,-2.247 -2.24,-1.934 -4.558,-3.987 -6.936,-6.139 -1.39,-1.257 -2.794,-2.54 -4.231,-3.874 -0.973,-0.905 -1.958,-1.828 -2.953,-2.769 -1.99,-1.882 -4.024,-3.838 -6.099,-5.871 -1.037,-1.016 -2.086,-2.051 -3.144,-3.106 -2.118,-2.109 -4.277,-4.296 -6.478,-6.564 -1.101,-1.134 -2.212,-2.288 -3.333,-3.462 -17.94,-18.79 -38.526,-42.815 -61.53,-73.48 72.727,24.257 119.123,28.037 143.705,27.458 0.029,-0.001 0.057,-0.002 0.087,-0.002 3.615,-0.087 6.754,-0.269 9.436,-0.492 0.537,-0.045 1.055,-0.092 1.555,-0.139 2.437,-0.233 4.44,-0.497 6.022,-0.744 0.087,-0.013 0.172,-0.026 0.256,-0.04 2.897,-0.461 4.306,-0.852 4.306,-0.852 v -0.001 c 0,0 -4.429,-6.116 -9.817,-14.584 -0.234,-0.368 -0.47,-0.741 -0.707,-1.117 -0.623,-0.987 -1.256,-2.004 -1.894,-3.042 -0.671,-1.091 -1.347,-2.207 -2.024,-3.343 -0.645,-1.082 -1.291,-2.181 -1.931,-3.292 6.919,1.48 13.806,2.603 20.469,3.447 0.605,0.077 1.209,0.151 1.811,0.223 1.203,0.145 2.399,0.28 3.586,0.407 2.372,0.254 4.709,0.474 6.999,0.664 1.145,0.095 2.278,0.182 3.399,0.262 2.242,0.161 4.433,0.293 6.564,0.401 1.066,0.054 2.116,0.102 3.151,0.144 0.517,0.021 1.03,0.041 1.539,0.059 1.018,0.037 2.019,0.069 3.003,0.095 4.424,0.119 8.486,0.138 12.08,0.101 0.798,-0.008 1.574,-0.019 2.325,-0.033 9.013,-0.159 14.525,-0.65 14.525,-0.65 0,0 -2.283,-0.918 -6.262,-2.785 -1.809,-0.849 -3.968,-1.894 -6.422,-3.138 -1.963,-0.996 -4.115,-2.119 -6.428,-3.37 -2.102,-1.138 -4.343,-2.388 -6.689,-3.74 -2.817,-1.623 -5.79,-3.396 -8.892,-5.332 -1.143,-0.714 -2.308,-1.455 -3.484,-2.211 -0.764,-0.492 -1.534,-0.992 -2.31,-1.502 -0.503,-0.33 -1.007,-0.664 -1.514,-1.002 -2.532,-1.685 -5.12,-3.465 -7.749,-5.342 -0.439,-0.313 -0.879,-0.629 -1.319,-0.947 -1.943,-1.403 -3.906,-2.858 -5.883,-4.366 -1.153,-0.879 -2.309,-1.775 -3.47,-2.69 -2.104,-1.658 -4.218,-3.374 -6.336,-5.151 -1.044,-0.875 -2.087,-1.764 -3.131,-2.668 -3.911,-3.386 -7.817,-6.972 -11.67,-10.766 -0.817,-0.805 -1.633,-1.619 -2.445,-2.442 -1.992,-2.02 -3.963,-4.102 -5.913,-6.234 -1.143,-1.249 -2.28,-2.51 -3.405,-3.798 -1.521,-1.743 -3.025,-3.521 -4.507,-5.334 -1.064,-1.303 -2.113,-2.631 -3.154,-3.971 -2.582,-3.322 -5.092,-6.752 -7.5,-10.303 -2.705,-3.985 -5.287,-8.115 -7.719,-12.392 50.525,19.227 122.162,28.717 177.049,33.376 z"
           style="fill:#d3d3d3;fill-opacity:1;fill-rule:nonzero;stroke:none"
           transform="matrix(1.3333333,0,0,-1.3333333,964.2864,1037.2131)"
           clip-path="url(#clipPath47)" />
        <path
           id="path48"
           d="m 0,0 c 7.72,-16.163 23.966,-24.496 36.287,-18.611 0.913,0.436 1.774,0.946 2.591,1.508 0.982,7.312 1.192,10.762 -1.288,17.64 -3.016,-3.449 -8.026,-8.006 -13.452,-8.006 -8.675,0 -11.973,6.085 -12.013,10.676 0.771,-0.216 1.58,-0.34 2.419,-0.34 4.948,0 8.96,4.011 8.96,8.959 0,2.07 -0.709,3.97 -1.887,5.487 l 4.687,1.434 C 19.235,25.149 8.186,31.311 -9.032,36.153 -10.775,32.904 1.332,20.084 1.332,20.084 c 0,0 -4.222,-5.641 -1.78,-19.042 -0.006,0.003 -0.013,0.009 -0.02,0.012 C -0.312,0.703 -0.167,0.35 0,0"
           style="fill:#96c11f;fill-opacity:1;fill-rule:nonzero;stroke:none"
           transform="matrix(1.3333333,0,0,-1.3333333,1278.7099,856.38267)"
           clip-path="url(#clipPath49)" />
        <path
           id="path50"
           d="m 0,0 c 0,-4.948 -4.011,-8.959 -8.959,-8.959 -4.948,0 -8.96,4.011 -8.96,8.959 0,4.948 4.012,8.959 8.96,8.959 C -4.011,8.959 0,4.948 0,0"
           style="fill:#ffffff;fill-opacity:1;fill-rule:nonzero;stroke:none"
           transform="matrix(1.3333333,0,0,-1.3333333,1310.0481,840.61413)"
           clip-path="url(#clipPath51)" />
        <path
           id="path52"
           d="m 0,0 c -11.262,-7.696 -37.166,2.065 -37.166,2.065 0,0 25.528,18.655 56.124,18.655 30.597,0 65.698,-46.999 65.698,-46.999 0,0 -40.169,22.525 -63.445,25.716 17.832,-5.068 49.367,-28.344 67.933,-45.425 -49.35,25.34 -68.121,23.276 -66.619,37.354 C 3.566,-13.703 0.939,-8.822 0,0 m 199.691,28.331 c 0,0 34.567,-22.512 -1.479,-45.274 C 158.424,-42.985 135.385,-35.401 126.214,-26.93 24.777,89.911 -63.313,36.167 -63.313,36.167 c 0,0 34.455,6.424 47.358,-2.568 -15.156,-5.268 -45.613,-13.89 -70.828,-43.25 61.63,13.593 150.979,-49.852 188.068,-56.438 -35.963,-18.942 -109.933,11.76 -109.933,11.76 0,0 -82.202,39.876 -174.112,5.082 9.827,21.518 29.474,31.555 29.474,31.555 0,0 -164.481,-2.412 -257.461,-37.793 38.92,68.417 116.202,99.483 116.202,99.483 0,0 -39.197,3.492 -79.451,-5.12 7.8,13.538 16.373,25.379 16.373,25.379 0,0 -48.949,13.641 -165.367,-25.189 92.016,122.66 145.351,139.092 145.351,139.092 0,0 -36.066,-1.904 -72.119,-15.081 84.106,75.121 141.131,83.92 141.131,83.92 0,0 -10.474,-38.832 -6.824,-53.471 78.19,172.875 236.593,184.859 241.435,185.408 -45.043,-93.442 -34.528,-133.924 -34.528,-133.924 0,0 -21.724,51.377 -15.415,83.369 -70.129,-44.381 -64.128,-99.085 -64.128,-99.085 0,0 -37.305,-7.542 -66.728,-48.014 49.695,10.439 70.703,1.839 70.703,1.839 0,0 -65.537,-33.144 -116.948,-98.645 114.855,68.862 233.617,64.246 233.617,64.246 0,0 -8.766,21.152 -34.884,35.439 67.186,36.394 118.819,25.672 122.726,25.067 49.053,-5.942 87.345,-47.349 78.128,-69.163 -9.217,-21.814 -26.713,-13.193 -35.694,-7.625 -8.981,5.568 -22.476,30.958 -41.535,33.774 -22.612,4.787 -42.603,-1.126 -68.233,10.647 11.794,-20.502 19.856,-20.39 30.27,-26.047 0,0 12.536,-30.494 19.062,-33.496 -2.442,13.402 1.78,19.042 1.78,19.042 0,0 -12.107,12.82 -10.364,16.069 17.218,-4.842 28.267,-11.004 35.336,-17.406 l -4.687,-1.434 c 1.178,-1.517 1.887,-3.417 1.887,-5.486 0,-4.949 -4.012,-8.96 -8.96,-8.96 -0.839,0 -1.649,0.124 -2.419,0.34 0.04,-4.59 3.338,-10.676 12.013,-10.676 5.426,0 10.436,4.557 13.452,8.006 2.481,-6.882 2.27,-10.331 1.287,-17.652 51.005,19.188 83.722,-5.891 83.722,-5.891 0,0 -8.784,14.943 -21.988,21.921 21.557,32.534 113.533,-23.778 153.462,-68.413 -31.67,11.599 -57.227,-18.447 -57.227,-18.447 M 26.018,314.994 c 0,0 -21.513,-17.104 -24.183,-44.317 h -55.103 c 37.501,46.547 79.286,44.317 79.286,44.317 M 278.97,38.045 c -69.114,99.544 -143.474,119.274 -143.474,119.274 0,0 10.164,54.226 -89.866,96.688 0,45.385 65.687,85.617 65.687,85.617 0,0 -72.086,27.342 -159.984,-5.02 8.498,44.332 38.721,90.861 38.721,90.861 0,0 -155.643,19.493 -330.582,-149.322 -182.462,-82.899 -235.67,-174.594 -235.67,-174.594 0,0 78.046,30.155 85.158,26.279 -28.592,-32.782 -108.896,-127.502 -119.395,-157.417 195.979,59.434 217.023,35.813 217.023,35.813 0,0 -50.576,-65.324 -67.72,-93.588 196.278,44.942 247.374,37.798 247.374,37.798 0,0 -19.065,-13.686 -22.473,-52.828 103.195,60.361 232.76,16.405 250.737,11.274 77.095,-25.633 130.407,22.712 130.407,22.712 0,0 62.69,-4.15 134.343,100.805 0,0 2.116,2.704 -0.286,5.648"
           style="fill:#002b5c;fill-opacity:1;fill-rule:nonzero;stroke:none"
           transform="matrix(1.3333333,0,0,-1.3333333,1274.9165,1011.4175)"
           clip-path="url(#clipPath53)" />
        <path
           id="path54"
           d="m 0,0 c -7.111,3.876 -85.157,-26.279 -85.157,-26.279 0,0 53.207,91.695 235.669,174.594 174.939,168.815 330.582,149.322 330.582,149.322 0,0 -30.223,-46.529 -38.721,-90.861 87.898,32.362 159.984,5.02 159.984,5.02 0,0 -65.687,-40.232 -65.687,-85.617 100.031,-42.462 89.866,-96.688 89.866,-96.688 0,0 23.478,-6.231 56.31,-29.348 l 0.52,0.102 c 4.471,146.888 -68.49,291.81 -203.432,372.848 -193.073,115.95 -441.969,58.437 -565.329,-127.265 -0.041,-0.062 -0.081,-0.124 -0.122,-0.185 -1.037,-1.562 -2.065,-3.134 -3.083,-4.714 -0.212,-0.328 -0.424,-0.656 -0.635,-0.985 -0.875,-1.366 -1.742,-2.739 -2.604,-4.118 -0.255,-0.408 -0.513,-0.814 -0.767,-1.223 -1.067,-1.722 -2.127,-3.451 -3.173,-5.193 C -168.977,107.524 -173.04,-36.606 -119.372,-157.358 -108.792,-127.38 -28.574,-32.762 0,0"
           style="fill:#96c11f;fill-opacity:1;fill-rule:nonzero;stroke:none"
           transform="matrix(1.3333333,0,0,-1.3333333,620.196,840.98)"
           clip-path="url(#clipPath55)" />
        <path
           id="path56"
           d="m 0,0 -0.016,0.033 c -0.59,-0.177 -1.214,-0.275 -1.862,-0.275 -2.508,0 -4.679,1.429 -5.755,3.516 L -7.665,3.271 c -6.054,12.065 -9.186,24.111 -8.387,35.918 0.626,9.267 4.066,17.107 9.214,23.734 C 53.914,59.25 114.701,41.463 170.609,8.337 118.349,17.502 61.362,14.714 0,0 m -34.011,-9.204 0.01,-0.035 c -19.308,-5.852 -39.024,-12.832 -59.133,-20.924 l -0.011,0.009 c -0.847,-0.407 -1.792,-0.641 -2.794,-0.641 -2.051,0 -3.875,0.956 -5.061,2.443 -23.227,29.27 -44.197,52.603 -60.658,69.772 41.552,14.503 85.39,22.071 129.613,22.224 -3.171,-6.814 -5.249,-14.435 -5.824,-22.981 -0.936,-13.85 2.018,-27.591 7.917,-41.093 l -0.052,-0.01 c 0.344,-0.791 0.538,-1.663 0.538,-2.581 0,-2.904 -1.912,-5.362 -4.545,-6.183 m -92.454,-35.223 v -0.029 c -26.502,-12.105 -50.801,-25.072 -73.059,-38.665 l -0.034,0.041 c -1.057,-0.749 -2.345,-1.194 -3.738,-1.194 -1.673,0 -3.192,0.639 -4.341,1.68 l -0.111,-0.02 c -2.386,2.448 -4.896,4.766 -7.56,6.921 -28.669,23.181 -61.351,30.561 -96.474,22.584 37.124,37.412 80.772,66.339 127.963,86.043 15.465,-15.734 36.221,-38.23 59.685,-67.241 0.049,-0.058 0.096,-0.117 0.143,-0.177 0.023,-0.028 0.045,-0.055 0.068,-0.083 l -0.004,-0.003 c 0.836,-1.09 1.337,-2.449 1.337,-3.929 0,-2.651 -1.594,-4.926 -3.875,-5.928 m -102.998,-58.11 v -0.061 l 0.004,-0.005 c -104.009,-72.011 -157.511,-157.213 -184.928,-223.267 -4.399,-10.6 -8.25,-20.951 -11.624,-30.984 -4.917,77.37 12.796,156.977 55.73,228.468 8.58,14.286 17.922,27.831 27.937,40.623 36.697,19.602 76.403,24.604 112.878,-4.616 l 0.003,-0.023 v -0.003 c 1.491,-1.186 2.45,-3.013 2.45,-5.066 0,-2.053 -0.959,-3.88 -2.45,-5.066 M 184.96,27.592 C -8.114,143.541 -257.01,86.028 -380.369,-99.674 c -0.041,-0.062 -0.081,-0.123 -0.122,-0.185 -1.037,-1.562 -2.065,-3.134 -3.083,-4.714 -0.212,-0.328 -0.424,-0.656 -0.635,-0.985 -0.875,-1.365 -1.742,-2.738 -2.604,-4.118 -0.256,-0.408 -0.513,-0.814 -0.767,-1.223 -1.067,-1.722 -2.127,-3.451 -3.173,-5.193 -73.224,-121.928 -77.265,-266.116 -23.539,-386.894 l 0.139,0.384 c 2.198,6.262 7.462,15.37 14.662,26.148 -8.151,20.848 -14.53,42.34 -19.062,64.23 4.971,23.134 12.616,49.673 24.362,77.971 26.231,63.214 77.574,144.821 177.659,213.991 l 0.027,-0.009 c 1.013,0.657 2.219,1.043 3.516,1.043 2.737,0 5.072,-1.701 6.02,-4.101 l 0.036,-0.011 c 10.9,-25.075 14.872,-58.896 15.007,-96.843 7.038,3.703 14.323,7.406 21.846,11.102 -0.911,38.698 -6.186,73.043 -19.055,99.475 l 0.009,0.007 c -0.49,0.912 -0.769,1.953 -0.769,3.06 0,2.441 1.352,4.565 3.347,5.669 l 0.006,0.041 c 23.214,14.088 48.714,27.486 76.73,39.901 l 0.057,-0.038 c 0.836,0.394 1.766,0.62 2.752,0.62 2.186,0 4.116,-1.086 5.288,-2.746 l 0.034,0.025 c 14.264,-18.925 29.155,-39.978 44.19,-63.099 6.165,4.156 12.269,8.096 18.307,11.832 -13.497,20.744 -26.888,39.864 -39.838,57.328 L -78.99,-57 c -0.852,1.097 -1.365,2.471 -1.365,3.968 0,2.702 1.656,5.016 4.008,5.986 v 0.015 c 19.548,7.585 38.326,13.906 56.374,19.106 0.748,0.302 1.564,0.472 2.42,0.472 2.211,0 4.161,-1.11 5.33,-2.802 l 0.063,0.017 c 12.186,-16.218 27.889,-31.913 45.395,-46.83 8.079,3.337 15.938,6.315 23.548,8.969 -15.639,12.599 -30.037,25.735 -41.842,39.094 l 0.036,0.031 c -1.049,1.151 -1.693,2.676 -1.693,4.356 0,3.278 2.437,5.98 5.598,6.409 85.15,17.988 152.168,9.61 204.029,-10.388 88.528,-73.892 138.228,-181.166 141.606,-291.81 v -9.784 c 7.134,-3.972 15.177,-8.925 23.875,-15.066 4.47,146.888 -68.49,291.81 -203.432,372.849"
           style="fill:#002b5c;fill-opacity:1;fill-rule:nonzero;stroke:none"
           transform="matrix(1.3333333,0,0,-1.3333333,1013.4952,380.31093)"
           clip-path="url(#clipPath57)" />
      </g>
    </g>
  </g>
</svg>
